<?xml version="1.0" encoding="UTF-8" standalone="no"?>
<svg
   id="Ebene_1"
   viewBox="0 0 128 128"
   version="1.1"
   sodipodi:docname="favicon.svg"
   width="128"
   height="128"
   inkscape:version="1.3 (0e150ed6c4, 2023-07-21)"
   xmlns:inkscape="http://www.inkscape.org/namespaces/inkscape"
   xmlns:sodipodi="http://sodipodi.sourceforge.net/DTD/sodipodi-0.dtd"
   xmlns="http://www.w3.org/2000/svg"
   xmlns:svg="http://www.w3.org/2000/svg">
  <sodipodi:namedview
     id="namedview26"
     pagecolor="#ffffff"
     bordercolor="#000000"
     borderopacity="0.25"
     inkscape:showpageshadow="2"
     inkscape:pageopacity="0.0"
     inkscape:pagecheckerboard="0"
     inkscape:deskcolor="#d1d1d1"
     inkscape:zoom="2.6461018"
     inkscape:cx="109.02831"
     inkscape:cy="108.08352"
     inkscape:window-width="3440"
     inkscape:window-height="1369"
     inkscape:window-x="0"
     inkscape:window-y="0"
     inkscape:window-maximized="1"
     inkscape:current-layer="Ebene_1" />
  <defs
     id="defs1">
    <style
       id="style1">.cls-1{fill:#3f3f3e;}.cls-2{fill:#cb1e58;}</style>
  </defs>
  <path
     class="cls-2"
     d="M 117.46359,24.266115 C 110.94396,19.933477 102.56126,19.110189 95.251477,22.195434 L 80.00832,29.388778 V 16.615386 L 74.461539,13.413735 79.908515,5.2390921 73.937626,1.255724 68.241172,9.8128997 63.99168,7.3596744 58.977129,10.261962 54.835766,1.0561394 l -6.544698,2.9438669 4.440736,9.8627897 -4.765068,2.75259 V 29.239091 L 32.781699,21.912692 C 25.588355,18.810815 17.130969,19.550944 10.569638,23.858643 3.9501043,28.21622 0,35.559251 0,43.492723 v 2.303546 C 0,58.145538 9.571724,68.282747 21.67984,69.214152 V 61.19752 C 13.945951,60.282747 7.908525,53.771311 7.908525,45.796269 v -2.303546 c 0,-5.247393 2.619542,-10.112252 7.010402,-13.014546 4.324312,-2.852399 9.970889,-3.3264 14.64449,-1.338878 L 54.769239,41.297311 27.883577,53.995852 V 95.484456 L 56.898122,112.24123 64,126.94386 71.309767,111.66734 99.33463,95.484456 v -25.089439 0 -15.600834 0 -0.7817 l -19.101783,-9.230779 -9.039503,4.440755 20.232792,9.763 V 90.910593 L 63.609142,106.96047 35.808724,90.910593 V 59.018722 L 98.436653,29.430366 c 4.839937,-2.012478 10.278587,-1.505195 14.669447,1.397079 4.44074,2.960498 6.9771,7.708952 6.9771,13.031198 0,8.249479 -6.4367,14.952172 -14.5447,15.525981 v 7.975044 C 118.02086,66.777551 128,56.474024 128,43.850318 128,35.950109 124.06647,28.615386 117.48028,24.232852 Z m -44.640302,8.51559 -8.873184,4.191276 -8.831595,-4.257805 V 20.773397 l 8.848227,-5.114355 8.848227,5.114355 V 32.79003 Z"
     id="path26"
     style="stroke-width:0.831595" />
</svg>
