<?xml version="1.0" encoding="UTF-8" standalone="no"?>
<!-- Uploaded to: SVG Repo, www.svgrepo.com, Transformed by: SVG Repo Mixer Tools -->

<svg
   height="800px"
   width="800px"
   version="1.1"
   id="Capa_1"
   viewBox="0 0 478.306 478.306"
   xml:space="preserve"
   fill="#000000"
   stroke="#000000"
   sodipodi:docname="server_dark.svg"
   inkscape:version="1.2.2 (b0a8486541, 2022-12-01)"
   xmlns:inkscape="http://www.inkscape.org/namespaces/inkscape"
   xmlns:sodipodi="http://sodipodi.sourceforge.net/DTD/sodipodi-0.dtd"
   xmlns="http://www.w3.org/2000/svg"
   xmlns:svg="http://www.w3.org/2000/svg"><defs
   id="defs417"><clipPath
     id="clip0_9583_13014"><rect
       width="16"
       height="16"
       fill="#ffffff"
       id="rect142"
       x="0"
       y="0" /></clipPath><clipPath
     id="clip0_9583_13016"><rect
       width="16"
       height="16"
       fill="#ffffff"
       id="rect217"
       x="0"
       y="0" /></clipPath><clipPath
     id="clip0_9583_13016-3"><rect
       width="16"
       height="16"
       fill="#ffffff"
       id="rect217-6"
       x="0"
       y="0" /></clipPath></defs><sodipodi:namedview
   id="namedview415"
   pagecolor="#ffffff"
   bordercolor="#000000"
   borderopacity="0.25"
   inkscape:showpageshadow="2"
   inkscape:pageopacity="0.0"
   inkscape:pagecheckerboard="0"
   inkscape:deskcolor="#d1d1d1"
   showgrid="false"
   inkscape:zoom="0.33043276"
   inkscape:cx="568.95085"
   inkscape:cy="553.81918"
   inkscape:window-width="1607"
   inkscape:window-height="749"
   inkscape:window-x="175"
   inkscape:window-y="6"
   inkscape:window-maximized="0"
   inkscape:current-layer="g215"
   showguides="false" />

<g
   id="SVGRepo_bgCarrier"
   stroke-width="0" />

<g
   id="SVGRepo_tracerCarrier"
   stroke-linecap="round"
   stroke-linejoin="round" />



<g
   clip-path="url(#clip0_9583_13016)"
   id="g215"
   inkscape:highlight-color="#3c3f41"
   style="fill:#3c3f41;fill-opacity:1;stroke:none;stroke-width:0.999998;stroke-dasharray:none"
   transform="matrix(39.422501,0,0,39.422501,-76.467763,-75.599733)"><g
     id="g16597"
     transform="matrix(0.83935892,0,0,0.83935892,1.2912357,1.269217)"><path
       d="M 4,4 H 6 V 5 H 4 Z"
       fill="#ced0d6"
       id="path207"
       style="fill:#ececec;fill-opacity:1;stroke:none;stroke-width:1;stroke-dasharray:none" /><path
       fill-rule="evenodd"
       clip-rule="evenodd"
       d="m 2,3 v 3 c 0,0.55228 0.44772,1 1,1 h 10 c 0.5523,0 1,-0.44772 1,-1 V 3 C 14,2.44772 13.5523,2 13,2 H 3 C 2.44772,2 2,2.44772 2,3 Z M 3,6 V 3 h 10 v 3 z"
       fill="#ced0d6"
       id="path209"
       style="fill:#ececec;fill-opacity:1;stroke:none;stroke-width:1;stroke-dasharray:none" /><path
       d="M 6,11 H 4 v 1 h 2 z"
       fill="#ced0d6"
       id="path211"
       style="fill:#ececec;fill-opacity:1;stroke:none;stroke-width:1;stroke-dasharray:none" /><path
       fill-rule="evenodd"
       clip-rule="evenodd"
       d="m 2,10 v 3 c 0,0.5523 0.44772,1 1,1 h 10 c 0.5523,0 1,-0.4477 1,-1 V 10 C 14,9.44772 13.5523,9 13,9 H 3 C 2.44772,9 2,9.44771 2,10 Z m 1,3 v -3 h 10 v 3 z"
       fill="#ced0d6"
       id="path213"
       style="fill:#ececec;fill-opacity:1;stroke:none;stroke-width:1;stroke-dasharray:none" /></g></g></svg>
