<svg width="16" height="16" viewBox="0 0 16 16" fill="none" xmlns="http://www.w3.org/2000/svg">
<path fill-rule="evenodd" clip-rule="evenodd" d="M9.05001 12C9.28164 10.8589 10.2905 10 11.5 10H13.5C13.7761 10 14 10.2239 14 10.5V11H15.5C15.7761 11 16 11.2239 16 11.5C16 11.7761 15.7761 12 15.5 12H14V14H15.5C15.7761 14 16 14.2239 16 14.5C16 14.7761 15.7761 15 15.5 15H14V15.5C14 15.7761 13.7761 16 13.5 16H11.5C10.2905 16 9.28164 15.1411 9.05001 14H8.5C8.22386 14 8 13.7761 8 13.5V12.5C8 12.2239 8.22386 12 8.5 12H9.05001ZM10 13.5V12.5C10 11.6716 10.6716 11 11.5 11H13V15H11.5C10.6716 15 10 14.3284 10 13.5Z" fill="#3574F0"/>
<path fill-rule="evenodd" clip-rule="evenodd" d="M2 3.39246H2.01664C2.07865 3.00405 2.30765 2.67483 2.59694 2.41334C2.9371 2.10586 3.40129 1.85189 3.93236 1.64885C4.99792 1.24147 6.43619 1 8 1C9.56381 1 11.0021 1.24147 12.0676 1.64885C12.5987 1.85189 13.0629 2.10586 13.4031 2.41334C13.6924 2.67483 13.9213 3.00405 13.9834 3.39246H14V9H13.5H13V8.04112C12.7276 8.21609 12.4117 8.369 12.0676 8.50053C11.0021 8.90791 9.56381 9.14938 8 9.14938C6.43619 9.14938 4.99792 8.90791 3.93236 8.50053C3.58833 8.369 3.27236 8.21609 3 8.04112V9.49048C3 9.59029 3.05102 9.74236 3.2675 9.93804C3.48396 10.1337 3.82523 10.3328 4.28947 10.5103C5.20998 10.8622 6.51338 11.091 7.97831 11.0932C7.5414 11.2553 7.20052 11.6151 7.06437 12.064C5.86709 11.9882 4.78141 11.769 3.93236 11.4444C3.58833 11.3128 3.27236 11.1599 3 10.985V12.4343C3 12.5341 3.05102 12.6862 3.2675 12.8819C3.48396 13.0775 3.82523 13.2767 4.28947 13.4542C5.01868 13.733 5.98819 13.9344 7.08794 14.0072C7.27781 14.5357 7.75597 14.9268 8.33277 14.9908C8.33943 15.0049 8.34617 15.0189 8.353 15.033C8.23613 15.0357 8.11842 15.0371 8 15.0371C6.43619 15.0371 4.99792 14.7956 3.93236 14.3882C3.40129 14.1852 2.9371 13.9312 2.59694 13.6237C2.2768 13.3344 2.03051 12.9621 2.00263 12.5184H2V3.39246ZM3 3.60275C3 3.50293 3.05102 3.35087 3.2675 3.15519C3.48396 2.95953 3.82523 2.7604 4.28947 2.58291C5.21452 2.22925 6.52624 2 8 2C9.47376 2 10.7855 2.22925 11.7105 2.58291C12.1748 2.7604 12.516 2.95953 12.7325 3.15519C12.949 3.35087 13 3.50293 13 3.60275C13 3.70256 12.949 3.85463 12.7325 4.05031C12.516 4.24597 12.1748 4.4451 11.7105 4.62258C10.7855 4.97625 9.47376 5.2055 8 5.2055C6.52624 5.2055 5.21452 4.97625 4.28947 4.62258C3.82523 4.4451 3.48396 4.24597 3.2675 4.05031C3.05102 3.85463 3 3.70256 3 3.60275ZM3 6.54663V5.09723C3.27236 5.27221 3.58833 5.42512 3.93236 5.55665C4.99792 5.96403 6.43619 6.2055 8 6.2055C9.56381 6.2055 11.0021 5.96403 12.0676 5.55665C12.4117 5.42512 12.7276 5.27221 13 5.09723V6.54663C13 6.64645 12.949 6.79851 12.7325 6.99419C12.516 7.18985 12.1748 7.38898 11.7105 7.56647C10.7855 7.92013 9.47376 8.14938 8 8.14938C6.52624 8.14938 5.21452 7.92013 4.28947 7.56647C3.82523 7.38898 3.48396 7.18985 3.2675 6.99419C3.05102 6.79851 3 6.64645 3 6.54663Z" fill="#6C707E"/>
</svg>
